<?xml version="1.0" encoding="UTF-8" standalone="no"?>
<!-- Created with Inkscape (http://www.inkscape.org/) -->

<svg
   xmlns:dc="http://purl.org/dc/elements/1.1/"
   xmlns:cc="http://creativecommons.org/ns#"
   xmlns:rdf="http://www.w3.org/1999/02/22-rdf-syntax-ns#"
   xmlns:svg="http://www.w3.org/2000/svg"
   xmlns="http://www.w3.org/2000/svg"
   xmlns:sodipodi="http://sodipodi.sourceforge.net/DTD/sodipodi-0.dtd"
   xmlns:inkscape="http://www.inkscape.org/namespaces/inkscape"
   width="395.28125"
   height="395.28125"
   id="svg2"
   version="1.1"
   inkscape:version="0.48.1 r9760"
   sodipodi:docname="broken_link.svg"
   inkscape:export-filename="/home/hurstel/Desktop/SOCIS2012/SOCIS2012/Interface/Ressources/icons/broken_link.png"
   inkscape:export-xdpi="7.2859516"
   inkscape:export-ydpi="7.2859516">
  <defs
     id="defs4" />
  <sodipodi:namedview
     id="base"
     pagecolor="#ffffff"
     bordercolor="#666666"
     borderopacity="1.0"
     inkscape:pageopacity="0.0"
     inkscape:pageshadow="2"
     inkscape:zoom="1.4"
     inkscape:cx="49.467221"
     inkscape:cy="191.87976"
     inkscape:document-units="px"
     inkscape:current-layer="layer1"
     showgrid="false"
     fit-margin-top="0"
     fit-margin-left="0"
     fit-margin-right="0"
     fit-margin-bottom="0"
     inkscape:window-width="1600"
     inkscape:window-height="1146"
     inkscape:window-x="0"
     inkscape:window-y="0"
     inkscape:window-maximized="1" />
  <metadata
     id="metadata7">
    <rdf:RDF>
      <cc:Work
         rdf:about="">
        <dc:format>image/svg+xml</dc:format>
        <dc:type
           rdf:resource="http://purl.org/dc/dcmitype/StillImage" />
        <dc:title></dc:title>
      </cc:Work>
    </rdf:RDF>
  </metadata>
  <g
     inkscape:label="Layer 1"
     inkscape:groupmode="layer"
     id="layer1"
     transform="translate(-65.21875,-323.28125)">
    <rect
       y="331.77075"
       x="73.694313"
       height="378.32565"
       width="378.32565"
       id="rect3072"
       style="fill:#c99d9d;stroke:#f9f9f9;stroke-width:16;stroke-miterlimit:4;stroke-opacity:1;stroke-dasharray:none;fill-opacity:1"
       inkscape:export-xdpi="18.032402"
       inkscape:export-ydpi="18.032402"
       ry="60"
       rx="60" />
    <rect
       style="fill:none;stroke:#000000"
       id="rect2985"
       width="394.28571"
       height="394.28571"
       x="65.714287"
       y="323.79074" />
    <path
       style="fill:#f9f9f9;stroke:none"
       d="M 106 219 C 99.851511 219.10443 93.573515 219.87279 87.28125 221.25 C 75.77801 236.51214 67.26101 252.23782 61.96875 267.21875 C 75.73157 263.8869 89.44137 265.25979 100.4375 271.15625 C 100.87051 255.87351 107.69146 237.56518 119.90625 219.9375 C 116.21766 219.39198 112.45311 219.05005 108.625 219 C 107.75175 218.9886 106.87836 218.98508 106 219 z M 125.6875 221 C 114.24771 236.77078 105.32343 255.04195 105.78125 274.46875 C 109.12365 276.95194 112.10519 279.98314 114.625 283.46875 C 130.6037 305.57179 121.73357 339.06422 94.71875 358.59375 L 58.34375 384.90625 L 96.125 389.6875 L 135.1875 361.4375 C 176.4743 331.59048 190.04528 280.34262 165.625 246.5625 C 155.95023 233.17962 141.80784 224.62033 125.6875 221 z M 79.46875 223.28125 C 68.35151 226.65717 57.3579 232.05729 47.0625 239.5 L 6.75 268.625 L 9.28125 272.4375 L 8 299.8125 L 37.0625 278.78125 C 43.02121 274.47357 49.33587 271.25381 55.75 269.03125 C 60.91043 252.69003 69.53734 237.23886 79.46875 223.28125 z "
       transform="translate(65.21875,323.28125)"
       id="rect2990" />
    <path
       style="fill:#f9f9f9;stroke:none"
       d="M 290.875 6.34375 L 246.84375 57.0625 C 241.84118 62.82439 237.56401 68.91173 234 75.1875 C 248.71431 66.75851 264.54704 60.53744 281.34375 57.84375 C 283.0194 55.35734 284.87299 52.93563 286.90625 50.59375 L 320.65625 11.71875 L 291.4375 6.71875 L 290.875 6.34375 z M 272.03125 64.9375 C 271.06286 65.19071 270.07061 65.46773 269.09375 65.75 C 270.06401 65.46989 271.06929 65.18897 272.03125 64.9375 z M 386.75 85.78125 L 363.78125 112.25 C 368.09608 122.51356 368.88129 135.05519 366.5 148.71875 L 389.25 122.53125 L 386.75 85.78125 z M 268.9375 105.59375 C 269.38324 105.65595 269.84313 105.70471 270.28125 105.78125 C 269.8377 105.70405 269.38895 105.65582 268.9375 105.59375 z M 248.8125 107 C 247.85904 107.23341 246.90396 107.47261 245.9375 107.75 C 246.90721 107.4723 247.85588 107.23346 248.8125 107 z M 245.53125 107.875 C 244.40564 108.20465 243.26576 108.58036 242.125 108.96875 C 243.26921 108.57969 244.40225 108.20495 245.53125 107.875 z M 264.71875 110.25 C 264.25964 110.251 263.8135 110.2849 263.34375 110.3125 C 247.70395 110.88875 233.53384 116.85383 220.8125 125.34375 C 221.33072 145.00408 228.77068 163.15997 243.34375 175.8125 C 259.62965 189.95213 281.48577 194.35134 303.40625 190 C 312.65207 170.28235 314.69757 151.36649 308.1875 138.375 C 299.47692 137.44083 291.31028 134.14388 284.59375 128.3125 C 279.33741 123.74888 275.4806 118.0625 273.03125 111.75 C 270.44624 110.81603 267.70757 110.23867 264.71875 110.25 z M 232.4375 112.875 C 231.26498 113.42439 230.08512 113.98815 228.90625 114.59375 C 230.08447 113.98855 231.26565 113.42389 232.4375 112.875 z M 359.15625 117.46875 C 358.54239 118.11955 357.91161 118.75297 357.28125 119.375 C 357.91307 118.7514 358.54101 118.1213 359.15625 117.46875 z M 350.0625 125.625 C 349.41167 126.1167 348.75522 126.56653 348.09375 127.03125 C 348.74985 126.57042 349.41685 126.11242 350.0625 125.625 z M 337.09375 133.34375 C 336.5287 133.59875 335.94325 133.82553 335.375 134.0625 C 335.94483 133.82508 336.52714 133.59932 337.09375 133.34375 z M 319.625 138.3125 C 318.92433 138.3957 318.19832 138.41353 317.5 138.46875 C 318.20001 138.41385 318.92262 138.39545 319.625 138.3125 z M 310.5 138.53125 C 311.04101 138.56315 311.58068 138.6108 312.125 138.625 C 311.57759 138.611 311.04406 138.56315 310.5 138.53125 z "
       transform="translate(65.21875,323.28125)"
       id="path2995" />
    <path
       style="fill:#f9f9f9;fill-opacity:1;stroke:none"
       d="m 359.10173,385.01927 c -30.00822,0.60929 -68.2799,19.1332 -101.12654,51.72176 l -14.54341,14.40082 -10.15899,25.45095 22.56366,-9.08963 2.63777,-2.70906 c 22.98436,-23.63793 49.96457,-36.72258 70.57828,-36.32286 9.36986,0.1817 17.45576,3.11664 23.24092,9.16092 l 16.25439,17.00295 c 0.3259,0.34049 0.61978,0.71421 0.92679,1.06936 14.94687,3.21335 32.07423,-1.98779 43.70149,-11.69175 4.48826,-4.45762 8.86826,-9.03046 13.18887,-13.68791 -1.71055,-2.90199 -3.73881,-5.57345 -6.13104,-7.98461 l -23.98948,-24.20336 c -8.53421,-8.60179 -20.43312,-12.85901 -34.25542,-13.11758 -0.95028,-0.0178 -1.91929,-0.0196 -2.88729,0 z m 71.07731,49.36915 -3.74279,4.0636 c -14.72206,16.95675 -36.65213,24.92322 -54.64469,22.9914 6.51007,12.9915 3.97026,32.11105 -5.27555,51.82869 20.43868,-4.06112 43.05471,-15.7277 59.17169,-34.29105 l 7.20041,-8.1272 c 2.38975,-13.679 1.60993,-26.19196 -2.70907,-36.46544 z m -0.96243,48.51365 c -12.59229,13.24856 -26.71386,24.87854 -44.23618,31.18989 -6.19152,2.56566 -12.76685,4.29998 -19.46249,5.23991 -4.54079,8.41537 -10.30235,16.90221 -17.25247,25.0232 l 2.53084,15.791 39.74483,-10.40851 c 19.30579,-21.78425 32.56596,-45.3363 38.67547,-66.83549 z m -222.25027,4.42005 -33.5425,33.25734 c -49.31812,48.93062 -67.01865,110.494 -39.70919,138.01973 l 20.99526,21.13784 c 14.37477,-10.9146 26.34831,-25.80882 27.73227,-44.23618 0.2874,-2.02654 0.37235,-4.00971 0.28516,-5.98846 l -8.448,-8.84011 C 155.7668,601.33056 167.79561,558.0987 201.2274,523.71627 l 22.10027,-22.74188 -20.60315,2.70906 4.24182,-16.36133 z m 93.24887,106.86549 -15.86229,16.32568 c -13.50267,13.88663 -28.40398,24.10585 -42.56083,30.12052 -5.81063,14.81633 -15.21371,28.36024 -26.69855,38.8537 -7.08965,5.52321 -14.26164,10.96407 -21.45865,16.36133 30.19106,-0.12627 69.11701,-18.69054 102.40979,-51.72176 l 35.36043,-35.07526 -0.78421,-0.49904 -31.68893,5.16861 1.28324,-19.53378 z m -112.53313,40.52904 c -0.96169,17.04262 -10.73018,34.86797 -27.73227,47.15911 l -1.78228,1.31889 c 7.15589,6.99885 16.56685,10.98195 27.48275,12.22644 l 14.75728,-10.69368 c 15.79606,-11.41926 27.53708,-25.98286 34.64751,-41.49147 -18.24637,6.10037 -34.68655,4.71457 -44.52134,-5.56071 l -2.85165,-2.95858 z"
       id="rect2997"
       inkscape:connector-curvature="0" />
    <path
       style="fill:#f9f9f9;stroke:none;stroke-width:1px;stroke-linecap:butt;stroke-linejoin:miter;stroke-opacity:1;fill-opacity:1"
       d="M 111.62186,81.628885 104.04571,134.66189 168.69548,123.55022 154.04826,90.215181 139.90613,108.903 z"
       id="path3884"
       inkscape:connector-curvature="0"
       transform="translate(65.21875,323.28125)" />
    <path
       style="fill:#f9f9f9;stroke:none;stroke-width:1px;stroke-linecap:butt;stroke-linejoin:miter;stroke-opacity:1;fill-opacity:1"
       d="m 309.10668,249.81928 -31.31473,1.01016 -4.54569,33.84011 9.59645,23.2335 53.53809,-8.08122 -37.37565,-34.34518 20.70813,-3.53554 z"
       id="path3886"
       inkscape:connector-curvature="0"
       transform="translate(65.21875,323.28125)" />
  </g>
</svg>
