<?xml version="1.0" encoding="UTF-8" standalone="no"?>
<!-- Created with Inkscape (http://www.inkscape.org/) -->

<svg
   xmlns:dc="http://purl.org/dc/elements/1.1/"
   xmlns:cc="http://creativecommons.org/ns#"
   xmlns:rdf="http://www.w3.org/1999/02/22-rdf-syntax-ns#"
   xmlns:svg="http://www.w3.org/2000/svg"
   xmlns="http://www.w3.org/2000/svg"
   xmlns:sodipodi="http://sodipodi.sourceforge.net/DTD/sodipodi-0.dtd"
   xmlns:inkscape="http://www.inkscape.org/namespaces/inkscape"
   width="395.28125"
   height="395.28125"
   id="svg2"
   version="1.1"
   inkscape:version="0.48.1 r9760"
   sodipodi:docname="link.svg"
   inkscape:export-filename="/home/hurstel/Desktop/SOCIS2012/SOCIS2012/Interface/Ressources/icons/link.png"
   inkscape:export-xdpi="7.2859516"
   inkscape:export-ydpi="7.2859516">
  <defs
     id="defs4" />
  <sodipodi:namedview
     id="base"
     pagecolor="#ffffff"
     bordercolor="#666666"
     borderopacity="1.0"
     inkscape:pageopacity="0.0"
     inkscape:pageshadow="2"
     inkscape:zoom="1.979899"
     inkscape:cx="134.75363"
     inkscape:cy="171.13263"
     inkscape:document-units="px"
     inkscape:current-layer="layer1"
     showgrid="false"
     fit-margin-top="0"
     fit-margin-left="0"
     fit-margin-right="0"
     fit-margin-bottom="0"
     inkscape:window-width="1600"
     inkscape:window-height="1146"
     inkscape:window-x="0"
     inkscape:window-y="0"
     inkscape:window-maximized="1" />
  <metadata
     id="metadata7">
    <rdf:RDF>
      <cc:Work
         rdf:about="">
        <dc:format>image/svg+xml</dc:format>
        <dc:type
           rdf:resource="http://purl.org/dc/dcmitype/StillImage" />
        <dc:title></dc:title>
      </cc:Work>
    </rdf:RDF>
  </metadata>
  <g
     inkscape:label="Layer 1"
     inkscape:groupmode="layer"
     id="layer1"
     transform="translate(-65.21875,-323.28125)">
    <rect
       y="331.77075"
       x="73.694313"
       height="378.32565"
       width="378.32565"
       id="rect3072"
       style="fill:#aec0b2;stroke:#f9f9f9;stroke-width:16;stroke-miterlimit:4;stroke-opacity:1;stroke-dasharray:none;fill-opacity:1"
       inkscape:export-xdpi="18.032402"
       inkscape:export-ydpi="18.032402"
       ry="60"
       rx="60" />
    <rect
       style="fill:none;stroke:#000000"
       id="rect2985"
       width="394.28571"
       height="394.28571"
       x="65.714287"
       y="323.79074" />
    <path
       style="fill:#f9f9f9;stroke:none"
       d="M 115.3125 214.96875 C 109.92221 215.06028 104.42259 215.73011 98.90625 216.9375 C 88.82152 230.31761 81.3584 244.08518 76.71875 257.21875 C 88.78442 254.29777 100.8286 255.51815 110.46875 260.6875 C 110.84837 247.28933 116.82271 231.23519 127.53125 215.78125 C 124.29752 215.303 120.98105 215.01263 117.625 214.96875 C 116.85944 214.95875 116.08254 214.95567 115.3125 214.96875 z M 132.5625 216.71875 C 122.53339 230.54478 114.72364 246.56254 115.125 263.59375 C 118.05524 265.77073 120.66592 268.41297 122.875 271.46875 C 136.88331 290.84618 129.12102 320.22248 105.4375 337.34375 L 47.875 378.96875 L 60.09375 384.6875 L 72.0625 389.625 L 140.90625 339.84375 C 177.10182 313.67728 189.00268 268.73956 167.59375 239.125 C 159.11202 227.39241 146.69498 219.89265 132.5625 216.71875 z M 92.0625 218.71875 C 82.31617 221.67837 72.65083 226.41258 63.625 232.9375 L 7.1875 273.71875 L 9 300.53125 L 54.875 267.375 C 60.09892 263.59852 65.62682 260.79223 71.25 258.84375 C 75.77408 244.51762 83.35577 230.9552 92.0625 218.71875 z "
       transform="translate(65.21875,323.28125)"
       id="rect2990" />
    <path
       style="fill:#f9f9f9;stroke:none"
       d="M 298.5625 4.125 L 238.78125 73 C 234.39557 78.05137 230.65576 83.37312 227.53125 88.875 C 240.43108 81.48542 254.3058 76.04902 269.03125 73.6875 C 270.50027 71.5077 272.12372 69.39685 273.90625 67.34375 L 324.6875 8.84375 L 323.25 8.40625 L 298.5625 4.125 z M 387.375 68.3125 L 341.3125 121.375 C 345.09526 130.37292 345.80639 141.3651 343.71875 153.34375 L 399.65625 88.90625 L 389.90625 82.125 L 387.375 68.3125 z M 260.875 79.90625 C 260.02602 80.12823 259.1689 80.37754 258.3125 80.625 C 259.16311 80.37943 260.03166 80.12671 260.875 79.90625 z M 258.15625 115.53125 C 258.54702 115.58575 258.95966 115.65165 259.34375 115.71875 C 258.9549 115.65105 258.55203 115.58567 258.15625 115.53125 z M 240.53125 116.78125 C 239.69536 116.98588 238.84728 117.19431 238 117.4375 C 238.85013 117.19404 239.69259 116.98592 240.53125 116.78125 z M 237.65625 117.53125 C 236.66944 117.82025 235.65634 118.15951 234.65625 118.5 C 235.65937 118.15892 236.66647 117.82051 237.65625 117.53125 z M 254.46875 119.625 C 254.06625 119.62598 253.66183 119.63205 253.25 119.65625 C 239.53881 120.16144 227.12137 125.40075 215.96875 132.84375 C 216.42306 150.07969 222.94274 166.00145 235.71875 177.09375 C 249.99638 189.48977 269.15762 193.34601 288.375 189.53125 C 296.48068 172.24506 298.30104 155.67071 292.59375 144.28125 C 284.9573 143.46227 277.76329 140.54979 271.875 135.4375 C 267.26684 131.43664 263.89731 126.47158 261.75 120.9375 C 259.48376 120.1187 257.08901 119.61507 254.46875 119.625 z M 226.15625 121.90625 C 225.12832 122.38789 224.096 122.90658 223.0625 123.4375 C 224.09543 122.90693 225.12891 122.38746 226.15625 121.90625 z M 337.25 125.9375 C 336.71184 126.50805 336.17763 127.07968 335.625 127.625 C 336.17891 127.0783 336.71063 126.50958 337.25 125.9375 z M 329.28125 133.09375 C 328.71068 133.52482 328.1424 133.93633 327.5625 134.34375 C 328.13769 133.93974 328.71522 133.52107 329.28125 133.09375 z M 317.90625 139.875 C 317.41088 140.09856 316.90443 140.29225 316.40625 140.5 C 316.90582 140.29186 317.40951 140.09906 317.90625 139.875 z M 302.59375 144.21875 C 301.97948 144.29165 301.36221 144.29534 300.75 144.34375 C 301.36369 144.29565 301.97798 144.29146 302.59375 144.21875 z M 294.625 144.4375 C 295.0993 144.4655 295.55405 144.4875 296.03125 144.5 C 295.55134 144.4877 295.10197 144.4655 294.625 144.4375 z "
       transform="translate(65.21875,323.28125)"
       id="path2995" />
    <path
       style="fill:#f9f9f9;fill-opacity:1;stroke:none"
       d="m 345.25821,400.37532 c -26.30779,0.53415 -59.88022,16.78366 -88.67642,45.3536 l -74.10485,73.49918 c -43.23652,42.8968 -58.74973,96.85897 -34.8079,120.9904 l 18.3837,18.52621 c 12.60217,-9.56868 23.12017,-22.60751 24.33347,-38.76252 0.25196,-1.77664 0.32583,-3.53811 0.24939,-5.27285 l -7.41049,-7.73113 c -16.22969,-16.95662 -5.68826,-54.8642 23.62093,-85.0068 l 50.19889,-51.65963 c 20.15007,-20.72305 43.7773,-32.20127 61.84905,-31.85084 8.21443,0.15929 15.30706,2.75284 20.37883,8.05178 l 14.25094,14.89222 c 0.28571,0.29851 0.55027,0.61495 0.81942,0.92631 13.10372,2.8171 28.10593,-1.71771 38.29939,-10.22504 3.93479,-3.90793 7.79106,-7.92329 11.57888,-12.00641 -1.49962,-2.54414 -3.28251,-4.90475 -5.37974,-7.01858 l -21.02011,-21.19827 c -7.48182,-7.54107 -17.91602,-11.28095 -30.03384,-11.50763 -0.8331,-0.0156 -1.68091,-0.0172 -2.52954,0 z m 62.29693,43.26686 -3.26245,3.58308 c -12.90663,14.86575 -32.14493,21.83322 -47.91876,20.13962 5.70729,11.38947 3.49449,28.1641 -4.61118,45.45029 17.91831,-3.56033 37.7235,-13.79521 51.85303,-30.06945 l 6.32639,-7.1102 c 2.09506,-11.99219 1.39938,-22.98672 -2.38703,-31.99334 z m -0.8398,42.55938 c -11.03949,11.61483 -23.40095,21.79309 -38.76253,27.32617 -5.42802,2.24928 -11.19551,3.7719 -17.06549,4.59592 -5.19124,9.62083 -12.2368,19.32729 -20.9845,28.32373 l -50.1989,51.624 c -11.83761,12.17422 -24.8907,21.12687 -37.30182,26.39985 -5.0941,12.98927 -13.33855,24.86025 -23.40715,34.05972 -6.2154,4.84212 -12.50172,9.62612 -18.81124,14.35782 26.46808,-0.1107 60.59356,-16.39559 89.78088,-45.3536 l 74.06922,-73.46354 c 21.72385,-21.55317 36.44314,-45.91733 42.68153,-67.87007 z M 194.98213,619.26964 c -0.8431,14.94103 -9.42797,30.58785 -24.33347,41.36333 l -1.5676,1.14008 c 6.27347,6.13579 14.54988,9.63279 24.1197,10.72382 l 12.93272,-9.36999 c 13.84819,-10.01111 24.12087,-22.77932 30.35449,-36.3755 -15.99634,5.34811 -30.3899,4.12725 -39.01193,-4.88095 z"
       id="rect2997"
       inkscape:connector-curvature="0"
       sodipodi:nodetypes="scccccccccscccccccsscccccccccccccccccccccccccc" />
  </g>
</svg>
