<?xml version="1.0" encoding="UTF-8" standalone="no"?>
<!-- Created with Inkscape (http://www.inkscape.org/) -->

<svg
   xmlns:dc="http://purl.org/dc/elements/1.1/"
   xmlns:cc="http://creativecommons.org/ns#"
   xmlns:rdf="http://www.w3.org/1999/02/22-rdf-syntax-ns#"
   xmlns:svg="http://www.w3.org/2000/svg"
   xmlns="http://www.w3.org/2000/svg"
   xmlns:xlink="http://www.w3.org/1999/xlink"
   xmlns:sodipodi="http://sodipodi.sourceforge.net/DTD/sodipodi-0.dtd"
   xmlns:inkscape="http://www.inkscape.org/namespaces/inkscape"
   width="210mm"
   height="297mm"
   id="svg4181"
   version="1.1"
   inkscape:version="0.48.3.1 r9886"
   sodipodi:docname="map_plugin.svg"
   inkscape:export-filename="/datas/Documents/SOCIS2012/SOCIS2012/Visualizator/resources/icons/map_plugin.png"
   inkscape:export-xdpi="12.329179"
   inkscape:export-ydpi="12.329179">
  <defs
     id="defs4183">
    <linearGradient
       id="linearGradient3829">
      <stop
         style="stop-color:#d0efa3;stop-opacity:1;"
         offset="0"
         id="stop3831" />
      <stop
         style="stop-color:#b0eb5b;stop-opacity:1;"
         offset="1"
         id="stop3833" />
    </linearGradient>
    <linearGradient
       id="linearGradient3819">
      <stop
         style="stop-color:#7f7716;stop-opacity:1;"
         offset="0"
         id="stop3821" />
      <stop
         style="stop-color:#dacd28;stop-opacity:1;"
         offset="1"
         id="stop3823" />
    </linearGradient>
    <inkscape:path-effect
       effect="bend_path"
       id="path-effect4746"
       is_visible="true"
       bendpath="m 173.74624,383.64119 c 182.58929,-6.37991 282.72645,-12.41682 445.47728,-3.03046"
       prop_scale="1"
       scale_y_rel="false"
       vertical="false"
       bendpath-nodetypes="cc" />
    <inkscape:path-effect
       effect="sketch"
       id="path-effect4744"
       is_visible="true"
       nbiter_approxstrokes="5"
       strokelength="100"
       strokelength_rdm="0.3;1"
       strokeoverlap="0.3"
       strokeoverlap_rdm="0.3;1"
       ends_tolerance="0.1;1"
       parallel_offset="5;1"
       tremble_size="5;1"
       tremble_frequency="1"
       nbtangents="5"
       tgt_places_rdmness="1;1"
       tgtscale="10"
       tgtlength="100"
       tgtlength_rdm="0.3;1" />
    <inkscape:path-effect
       bendpath-nodetypes="cc"
       vertical="false"
       scale_y_rel="false"
       prop_scale="1"
       bendpath="m 202.24292,385.99098 c 127.17758,-9.0184 255.40037,-8.62992 384.62413,0.76733"
       is_visible="true"
       id="path-effect4714"
       effect="bend_path" />
    <inkscape:path-effect
       effect="sketch"
       id="path-effect4712"
       is_visible="true"
       nbiter_approxstrokes="5"
       strokelength="100"
       strokelength_rdm="0.3;1"
       strokeoverlap="0.3"
       strokeoverlap_rdm="0.3;1"
       ends_tolerance="0.1;1"
       parallel_offset="5;1"
       tremble_size="5;1"
       tremble_frequency="1"
       nbtangents="5"
       tgt_places_rdmness="1;1"
       tgtscale="10"
       tgtlength="100"
       tgtlength_rdm="0.3;1" />
    <inkscape:path-effect
       effect="bend_path"
       id="path-effect4708"
       is_visible="true"
       bendpath="m 195.71294,385.36091 c 131.50751,-9.32546 264.09581,-8.92374 397.71917,0.79345"
       prop_scale="1"
       scale_y_rel="false"
       vertical="false"
       bendpath-nodetypes="cc" />
    <inkscape:path-effect
       effect="spiro"
       id="path-effect4704"
       is_visible="true" />
    <inkscape:path-effect
       effect="bend_path"
       id="path-effect4702"
       is_visible="true"
       bendpath="m 119.08628,404.73781 c 194.94548,-8.46525 376.74849,-12.88666 502.30023,0"
       prop_scale="1"
       scale_y_rel="false"
       vertical="false"
       bendpath-nodetypes="cc" />
    <filter
       inkscape:collect="always"
       id="filter3798">
      <feGaussianBlur
         inkscape:collect="always"
         stdDeviation="1.578846"
         id="feGaussianBlur3800" />
    </filter>
    <filter
       inkscape:collect="always"
       id="filter3815">
      <feGaussianBlur
         inkscape:collect="always"
         stdDeviation="4.7269549"
         id="feGaussianBlur3817" />
    </filter>
    <radialGradient
       inkscape:collect="always"
       xlink:href="#linearGradient3819"
       id="radialGradient3825"
       cx="518.20825"
       cy="393.29391"
       fx="518.20825"
       fy="393.29391"
       r="188.02563"
       gradientTransform="matrix(0.68356768,-1.9908464,1.2124389,0.45224472,-311.9606,1336.2068)"
       gradientUnits="userSpaceOnUse" />
    <radialGradient
       inkscape:collect="always"
       xlink:href="#linearGradient3829"
       id="radialGradient3835"
       cx="522.85712"
       cy="519.50507"
       fx="522.85712"
       fy="519.50507"
       r="281.42856"
       gradientUnits="userSpaceOnUse"
       gradientTransform="matrix(-1.2090432,-1.4182279,1.3315975,-1.1351652,518.71332,1865.6668)" />
    <filter
       inkscape:collect="always"
       id="filter3872">
      <feGaussianBlur
         inkscape:collect="always"
         stdDeviation="6.3489321"
         id="feGaussianBlur3874" />
    </filter>
  </defs>
  <sodipodi:namedview
     id="base"
     pagecolor="#ffffff"
     bordercolor="#666666"
     borderopacity="1.0"
     inkscape:pageopacity="0.0"
     inkscape:pageshadow="2"
     inkscape:zoom="0.7"
     inkscape:cx="84.825183"
     inkscape:cy="583.82822"
     inkscape:document-units="px"
     inkscape:current-layer="layer1"
     showgrid="false"
     inkscape:window-width="1440"
     inkscape:window-height="841"
     inkscape:window-x="0"
     inkscape:window-y="27"
     inkscape:window-maximized="1" />
  <metadata
     id="metadata4186">
    <rdf:RDF>
      <cc:Work
         rdf:about="">
        <dc:format>image/svg+xml</dc:format>
        <dc:type
           rdf:resource="http://purl.org/dc/dcmitype/StillImage" />
        <dc:title></dc:title>
      </cc:Work>
    </rdf:RDF>
  </metadata>
  <g
     inkscape:label="Calque 1"
     inkscape:groupmode="layer"
     id="layer1">
    <rect
       style="color:#000000;fill:#293826;fill-opacity:1;fill-rule:nonzero;stroke:none;stroke-width:3;marker:none;visibility:visible;display:inline;overflow:visible;enable-background:accumulate;opacity:0"
       id="rect3025"
       width="528.57141"
       height="528.57141"
       x="144"
       y="77.505043"
       inkscape:export-filename="/datas/Documents/SOCIS2012/SOCIS2012/Visualizator/resources/icons/map_plugin.png"
       inkscape:export-xdpi="13.621622"
       inkscape:export-ydpi="13.621622" />
    <rect
       ry="34.433403"
       rx="34.433403"
       y="84.053177"
       x="153.47546"
       height="502.47263"
       width="502.47263"
       id="rect3862"
       style="color:#000000;fill:#293826;fill-opacity:1;fill-rule:nonzero;stroke:none;stroke-width:3;marker:none;visibility:visible;display:inline;overflow:visible;enable-background:accumulate;filter:url(#filter3872)" />
    <rect
       style="color:#000000;fill:url(#radialGradient3835);fill-opacity:1;fill-rule:nonzero;stroke:none;stroke-width:3;marker:none;visibility:visible;display:inline;overflow:visible;enable-background:accumulate"
       id="rect3827"
       width="502.47263"
       height="502.47263"
       x="157.47546"
       y="88.053177"
       rx="34.433403"
       ry="34.433403" />
    <g
       id="g3001"
       transform="matrix(0.69189777,-0.6252699,0.6142718,0.70428571,-107.66172,318.83715)">
      <rect
         y="178.25929"
         x="181.87625"
         height="409.48236"
         width="426.03827"
         id="rect4757"
         style="opacity:0;color:#000000;fill:#6c5353;fill-opacity:1;fill-rule:nonzero;stroke:none;stroke-width:3;marker:none;visibility:visible;display:inline;overflow:visible;enable-background:accumulate" />
      <path
         inkscape:connector-curvature="0"
         inkscape:original-d="m 204.44091,185.70787 394.54537,0 0,394.54536 -394.54537,0 z"
         inkscape:path-effect="#path-effect4708"
         id="rect4699"
         d="m 181.75898,188.58236 c 142.20784,-10.05145 284.65516,-9.48768 425.98116,0.81888 l -28.61606,393.50624 c -123.34941,-8.94084 -246.9554,-9.48766 -369.45718,-0.76802 -9.30264,-131.1857 -18.60528,-262.3714 -27.90792,-393.5571 z"
         style="color:#000000;fill:#e8ddab;fill-opacity:1;fill-rule:nonzero;stroke:none;stroke-width:3;marker:none;visibility:visible;display:inline;overflow:visible;enable-background:accumulate" />
      <path
         style="color:#000000;fill:#c4b676;fill-opacity:1;fill-rule:nonzero;stroke:none;stroke-width:3;marker:none;visibility:visible;display:inline;overflow:visible;enable-background:accumulate"
         d="m 198.30358,203.12941 c 27.94903,-2.72962 53.6964,-3.61628 79.51505,-4.44813 m -20.54727,-9.35836 c 23.43041,-1.51194 48.04482,-1.96507 73.07789,-1.97448 m -21.92332,6.09595 c 23.78385,-1.08577 49.33411,-1.99429 74.86623,-3.41498 m -11.08748,2.82317 c 33.16244,0.86926 64.1012,0.78372 96.77192,2.61421 m -35.26207,-9.4973 c 27.41788,-0.20353 57.84255,0.60689 89.45538,0.89727 m -22.05315,5.53868 c 24.71746,1.71578 51.71227,1.15457 79.57547,-0.40845 m -24.77217,2.87592 c 13.05862,0.80205 26.70556,1.61387 40.74334,2.43623 -0.31596,11.25941 -0.34312,22.46089 -0.20054,33.60529 m 6.05554,-20.65425 c -1.22287,23.12152 -3.83909,47.45182 -7.15917,72.66335 m 0.0526,-13.58423 c -1.40034,31.2107 -4.74816,60.23345 -7.899,88.50186 m 5.05488,-26.57306 c -2.80317,31.64315 -3.50345,61.84956 -3.63455,94.12979 m -3.07637,-23.7439 c -0.63914,27.71944 -3.46447,54.62291 -5.77391,81.48642 m -3.48297,-25.23406 c -0.7471,30.71898 -4.16357,59.2268 -6.80177,87.4193 m 0.62895,-16.48396 c -0.55576,16.14942 -1.40505,32.90222 -2.12397,50.36684 -11.46826,0.22572 -22.86813,0.91749 -34.02886,2.11879 m 24.75249,-5.96664 c -25.40436,-0.44099 -50.19501,-0.82904 -75.87087,0.76879 m 18.54283,-5.41695 c -26.17992,-1.90365 -53.42108,-2.29742 -81.38851,-2.50309 m 19.41475,3.08274 c -31.09433,0.20699 -60.10736,0.26264 -88.3035,2.32989 m 24.69538,-1.73897 c -31.83334,0.83862 -64.82208,-1.04463 -97.11925,-3.74501 m 26.78859,0.0251 c -29.96321,1.71665 -59.5612,4.17008 -88.51806,9.12215 -0.0995,-2.37045 -0.19455,-4.72618 -0.28508,-7.06603 m 19.14603,-0.12751 c -6.93171,0.49655 -13.79051,0.95852 -20.57068,1.39454 -0.90971,-20.537 -1.17829,-41.56077 -0.66767,-62.86167 m -10.4108,29.40823 c -1.10446,-30.64579 -2.42501,-60.64453 -1.45856,-91.63229 m 2.43103,24.85347 c -1.80984,-31.78769 -4.65353,-63.90426 -7.41264,-97.36216 m 5.31841,27.83332 c -3.25463,-34.19459 -3.80951,-64.49941 -4.34465,-95.58626 m -1.01797,30.24054 c -2.14716,-32.05182 -4.41283,-65.75675 -6.59297,-102.59316 m -4.14104,34.44806 c -2.08157,-23.555 -3.1489,-46.81571 -3.84147,-70.14546 10.15062,-0.69791 20.36784,-1.35631 30.60438,-2.00203 m -18.65729,-7.99604 c 30.72652,-0.72292 59.59863,-1.28838 88.6864,1.42234 m -20.26443,3.26434 c 23.2983,-1.07724 46.81464,-1.38988 69.86364,-1.01315 m -12.13489,3.10102 c 29.58549,-1.57579 58.77616,-1.37088 88.54692,-1.3696 m -25.79908,0.63275 c 24.06014,0.44375 49.0811,0.28589 73.49106,0.30871 m -17.63843,1.25167 c 28.02147,1.0837 56.89194,0.0773 86.57924,-1.85849 m -26.98732,-7.69066 c 31.24255,0.25282 64.37562,4.04222 97.4368,8.50234 -0.0382,1.1853 -0.0764,2.37081 -0.11468,3.55639 m -25.79547,2.786 c 8.59434,0.94618 17.31787,1.75394 26.14675,2.50245 -1.07239,18.82865 -1.64364,37.2126 -1.94144,55.92412 m 11.03236,-28.73309 c -1.71272,27.79484 -3.99968,55.40197 -6.23363,83.31056 m -1.79888,-17.60287 c -1.60615,30.41686 -5.64615,61.99894 -10.5616,94.66401 m 2.54135,-32.88072 c -2.77488,30.91602 -4.50694,62.8203 -6.54708,94.84065 m 6.72991,-32.08634 c -0.84968,29.66978 -4.13549,60.38931 -6.85508,92.75751 m -8.25126,-12.37118 c -2.35506,28.64076 -3.43167,56.4565 -3.9173,84.52374 -2.42599,-0.19326 -4.84719,-0.38066 -7.2641,-0.56137 m 8.01734,-33.02389 c -0.68588,5.66694 -1.27881,11.43819 -1.80276,17.28748 -18.11795,-1.57716 -35.62001,-2.26966 -53.15,-2.78503 m 18.60426,11.81511 c -31.8511,-2.20561 -68.39895,-3.94139 -106.88272,-6.05079 m 41.9837,5.90011 c -30.83141,-0.4277 -63.28435,-1.11512 -94.15597,-0.53432 m 18.00766,-16.40206 c -24.40593,0.1524 -47.94996,1.26829 -70.64114,3.7678 m 16.66352,14.00888 c -30.83653,1.11181 -57.82317,0.93602 -83.75509,0.75947 m 18.22603,-6.4907 c -20.29269,0.11514 -39.36321,1.93278 -57.75736,4.62246 -0.046,-10.89242 0.13442,-21.56643 0.42813,-32.19323 m 4.35055,29.14123 c -2.09481,-25.15536 -3.70111,-50.22529 -5.3539,-75.31927 m -0.61345,12.6093 c -2.86158,-24.52021 -4.40332,-50.5411 -6.50023,-76.38593 m -2.359,16.61862 c -2.7558,-24.2972 -3.8491,-48.07385 -4.93992,-71.79571 m -1.13189,20.83008 c -2.20491,-28.51295 -3.13513,-59.55261 -3.07951,-90.88758 m -0.70247,22.35193 c -2.23474,-32.79501 -4.22883,-65.16307 -5.72061,-97.09415 m -3.79969,25.45349 c -0.90314,-21.97581 -1.83041,-43.38477 -2.00217,-64.76589 9.34557,-0.55765 18.81788,-1.06873 28.46938,-1.57008 m -17.74906,0.006 c 33.19306,-2.5184 63.49148,-4.23972 90.84866,-6.00571 m -21.40124,3.91983 c 32.67389,-2.13748 61.4078,-3.85954 89.95284,-7.32493 m -22.23524,-2.39579 c 30.5145,-1.71425 61.7214,-0.64644 91.98351,0.23198 m -18.03429,4.1413 c 28.69778,0.78486 57.07911,-0.33415 85.93735,-1.92082 m -30.49186,-2.7155 c 27.00572,-0.5283 56.17052,3.22841 84.98246,8.5118 m -29.35445,6.22744 c 24.38373,1.46508 49.37559,2.98335 75.09546,5.00189 -0.0217,1.83643 -0.0392,3.674 -0.0523,5.51291 m -9.15024,-14.56014 c 4.33374,0.25885 8.64804,0.52741 12.94354,0.80382 -2.19435,27.89681 -5.14193,55.72761 -8.66011,82.98999 m 7.49859,-22.86701 c -3.06577,27.49317 -3.96633,54.97899 -4.86986,83.535 m -2.50753,-24.95028 c -2.66672,25.91294 -2.95421,54.55404 -2.21914,83.43373 m 7.47202,-25.19228 c -1.84652,25.74012 -5.64548,53.31548 -11.28491,81.8166 m -7.69242,-18.42695 c -1.14932,30.05336 -2.3018,58.77282 -0.98768,86.91423 m 5.88849,-26.75658 c -2.95705,24.95758 -5.07301,52.1555 -8.30439,80.59127 -3.89489,0.15162 -7.81337,0.33692 -11.76131,0.55288 m 10.64465,-9.43118 c -0.19456,4.01721 -0.41454,8.01676 -0.65568,11.99871 -27.26341,-2.2333 -55.54028,-4.86338 -83.43129,-7.85474 m 30.21164,3.36164 c -25.86462,-2.33288 -50.4676,-2.57012 -74.53614,-2.52513 m 13.89746,-6.9947 c -25.05338,-0.79255 -49.11502,-0.96541 -73.2329,-0.67358 m 18.87137,9.90311 c -31.89685,0.46187 -60.61249,0.94049 -89.48487,3.0597 m 21.82779,-6.21456 c -24.49052,0.61981 -47.2884,2.21268 -68.76229,4.9635 m 19.76548,2.7679 c -21.00093,0.11794 -42.0696,1.57917 -63.40488,3.42667 -0.4696,-4.70372 -0.95513,-9.4015 -1.45912,-14.10509 m 5.56136,8.58811 c -1.0753,0.0306 -2.15506,0.0657 -3.23916,0.10515 -1.04015,-23.55861 -3.93262,-45.6143 -7.59334,-67.51074 m -5.54746,21.17599 c -1.04481,-25.34877 -2.56033,-52.96635 -2.9759,-80.86815 m -2.7471,11.56112 c -1.30493,-25.37213 -3.42873,-51.0677 -5.46079,-76.64266 m 6.07538,21.19403 c -3.34112,-32.10163 -6.23578,-65.42886 -11.69502,-99.07751 m 8.25971,22.01037 c -3.26369,-28.4838 -3.15812,-56.27354 -2.40459,-84.67786 m 2.06828,31.18986 c -1.71545,-25.03177 -3.09577,-49.57226 -4.1269,-74.76133 m -8.62355,16.35469 c -0.62115,-6.34397 -1.2535,-12.82428 -1.91451,-19.40265 19.97723,-1.1947 39.68669,-3.09327 58.61309,-4.57386 m -50.61926,0.2803 c 31.23357,-3.40141 58.56719,-2.74903 84.39548,-1.22786 m -22.58185,-1.24721 c 29.80746,-2.21959 62.38375,-4.12876 94.37825,-7.7595 m -30.07617,4.27619 c 24.49949,0.0115 47.63729,-0.47488 70.59763,-0.6245 m -19.9012,5.14554 c 23.85434,0.3832 48.64885,0.4724 74.61792,0.94099 m -13.7122,-6.4621 c 23.19914,1.17635 48.84748,1.42498 75.22853,1.95644 m -10.68485,1.4492 c 26.83031,1.00495 52.85452,1.51356 77.6191,1.59607 m -28.87923,0.19892 c 15.7461,0.17571 31.90492,1.57209 48.50345,3.70216 -0.2343,18.46974 0.0899,37.68978 1.01311,57.00097 m 2.84772,-32.55441 c -2.43697,24.54524 -3.56992,50.71761 -4.46129,77.70806 m 6.83694,-21.93032 c -0.53726,22.44501 -3.44744,46.91866 -7.03238,72.06937 m -3.31737,-11.19292 c -2.74273,24.85789 -4.32945,47.4575 -6.32352,69.10125 m 3.90014,-13.10384 c -2.02382,26.60723 -4.59223,53.56079 -7.82256,80.47352 m -2.11974,-24.92036 c -1.29625,24.47821 -2.30379,49.21021 -2.12079,73.40988 m -2.56573,-21.31451 c -2.24554,23.71045 -3.03038,47.14155 -3.17818,71.23991 -0.6705,-0.0197 -1.3404,-0.0385 -2.00971,-0.0563 m 3.80894,-11.52268 c -0.34279,4.25188 -0.64637,8.5382 -0.91194,12.85215 -20.16998,-1.80635 -39.5226,-2.77579 -58.17245,-3.59315 m 15.93978,8.73587 c -25.58914,-1.14193 -48.94887,-2.28447 -71.96416,-3.07795 m 14.57773,-5.04008 c -29.579,-0.082 -61.06894,-0.88345 -93.92949,-0.23813 m 33.55154,4.02382 c -23.66686,-0.52478 -46.82494,-0.89485 -69.60208,-1.64957 m 2.13954,2.79755 c -29.14888,0.16481 -56.86192,0.9229 -83.12345,1.646 m 19.16239,-9.70892 c -24.38339,2.0049 -47.21044,3.9246 -69.94031,7.30826 -0.10634,-2.14842 -0.21212,-4.28579 -0.31876,-6.41057 m 13.04628,11.67378 c -3.75296,0.3795 -7.45863,0.73089 -11.12176,1.05912 -2.21876,-25.95836 -2.21103,-53.60555 -1.84181,-81.02153 m 11.6158,16.92489 c -1.33164,-25.5728 -3.84236,-49.05054 -6.85605,-72.27623 m -2.04086,22.14979 c -1.56779,-31.02604 -4.22841,-64.96159 -6.00998,-99.04718 m 3.12072,25.17453 c -1.50385,-26.64567 -2.92751,-51.15549 -3.53597,-73.88084 m -6.45389,20.85845 c -3.47954,-31.79421 -4.45364,-65.82196 -6.32812,-99.18232 m -6.16114,28.36171 c -2.3667,-23.88001 -3.58344,-47.56706 -4.69504,-71.60877 0.99401,-0.0905 1.98822,-0.18114 2.98254,-0.27188 m 8.65225,8.10189 c 34.14737,-0.86566 66.48227,-5.50639 100.27933,-9.76089 m -26.29916,-6.42555 c 28.30756,-2.34617 55.8468,-1.57618 84.45675,-0.0545 m -19.95094,-1.90156 c 30.5071,-0.0249 58.72155,-0.49733 87.90925,0.007 m -27.0293,5.04814 c 29.41231,-0.69909 57.67606,-1.51779 84.43707,-4.16945 m -18.51817,4.55048 c 23.21301,1.45242 46.1378,0.41718 68.51551,-1.75338 m -14.66232,2.73677 c 29.58218,2.11211 59.65304,4.02095 88.58824,7.80605 -0.11845,1.1024 -0.23821,2.20651 -0.35934,3.31243 m -18.53222,-2.8626 c 7.49534,0.12501 15.12891,0.44095 22.85786,0.88581 -1.44154,18.9272 -2.27418,38.46195 -3.14736,57.66102 m -0.98019,-24.82211 c -1.94319,31.32321 -3.84921,63.78762 -4.66749,95.28227 m -4.91394,-24.52287 c -0.95657,33.05488 -2.33227,64.57926 -0.15423,96.77986 m -2.33636,-35.22926 c -1.62773,23.34307 -3.84359,47.08776 -6.52158,71.14808 m 8.82363,-9.77496 c -3.56956,31.53186 -6.43577,62.26617 -12.02096,93.19231 m 8.34722,-23.32626 c -2.98866,26.6193 -5.62373,55.05351 -9.93904,83.06847 -2.65119,-0.14791 -5.3156,-0.29569 -7.99463,-0.44486 m 8.07002,-18.17802 c -0.38402,5.66063 -0.82669,11.35717 -1.32502,17.08247 -18.69158,-1.39555 -37.96203,-2.30105 -57.70584,-2.94902 m 16.1481,-2.59061 c -26.71255,-1.55171 -51.52724,-1.95966 -75.46887,-1.33361 m 13.26444,-4.34148 c -28.4338,-1.52912 -56.60378,-0.66873 -84.76503,1.33513 m 22.49045,-0.55734 c -28.17074,-0.0482 -54.45434,0.16133 -79.64723,1.03408 m 14.8117,-0.6287 c -26.91935,-0.81431 -51.85644,1.5633 -76.91906,4.93935 m 21.28416,0.0886 c -25.08515,1.39125 -49.1034,3.15699 -73.24293,5.97288 -0.44719,-6.42244 -0.90708,-12.79295 -1.40516,-19.09728 m -0.36177,15.44794 c -2.01136,0.18189 -4.01297,0.35415 -6.00553,0.51731 -2.95145,-29.75129 -3.79099,-62.28033 -5.21379,-95.69535 m 6.89977,30.98956 c -0.83347,-32.84469 -6.45286,-66.84544 -12.52967,-102.48423 m 11.33925,35.55802 c -1.58523,-25.04216 -3.58272,-50.4557 -5.57932,-74.90401 m -1.16759,11.89974 c -3.47089,-31.05398 -5.5567,-63.13424 -9.59954,-94.91996 m 0.58107,33.01377 c -2.91216,-29.13943 -2.47993,-63.49795 -0.56897,-99.32181 m 5.93508,31.4212 c -0.93464,-17.9248 -3.00492,-36.23148 -5.85328,-54.40383 10.50598,-0.618 20.71477,-1.11312 30.71118,-1.36309 M 447.43081,569.6706 286.57688,570.99405 M 200.17788,356.86981 190.02641,213.71366 M 210.54278,503.03575 199.99343,354.26869 M 345.02966,187.45168 535.155,190.87996 m 45.13846,286.27334 -12.29597,169.08475"
         id="path4710"
         inkscape:path-effect="#path-effect4714;#path-effect4712"
         inkscape:original-d="m 210.68352,192.91159 381.55481,0 0,381.55482 -381.55481,0 z"
         inkscape:connector-curvature="0" />
      <g
         transform="matrix(0.78547717,0,0,0.78547717,83.130544,86.491429)"
         inkscape:path-effect="#path-effect4746"
         id="g4735">
        <path
           inkscape:connector-curvature="0"
           inkscape:original-d="m 176.7767,179.59038 434.3656,0 0,412.14224 -434.3656,0 z"
           style="color:#000000;fill:none;stroke:#c4b676;stroke-width:4.09151411;stroke-opacity:1;marker:none;visibility:visible;display:inline;overflow:visible;enable-background:accumulate"
           d="m 169.65195,179.60791 c 74.37903,-2.6333 151.31572,-6.06153 230.88177,-7.41694 76.80843,-1.27066 153.68498,0.28893 230.43854,4.70746 l -23.73013,411.45851 c -66.50587,-3.84387 -133.18962,-5.19452 -199.86011,-4.08064 -71.81271,1.15964 -146.19785,4.52215 -223.22712,7.21979 z"
           id="rect4716" />
        <path
           inkscape:original-d="m 288.90363,178.58023 0,412.14224"
           style="color:#000000;fill:none;stroke:#c4b676;stroke-width:4.09151411;stroke-linecap:butt;stroke-linejoin:round;stroke-miterlimit:4;stroke-opacity:1;stroke-dasharray:none;stroke-dashoffset:0;marker:none;visibility:visible;display:inline;overflow:visible;enable-background:accumulate"
           d="m 283.77106,174.3875 14.555,411.88978"
           id="path4718"
           inkscape:connector-curvature="0" />
        <path
           inkscape:original-d="m 400.02041,175.54977 0,416.18285"
           style="color:#000000;fill:none;stroke:#c4b676;stroke-width:4.09151411;stroke-linecap:butt;stroke-linejoin:round;stroke-miterlimit:4;stroke-opacity:1;stroke-dasharray:none;stroke-dashoffset:0;marker:none;visibility:visible;display:inline;overflow:visible;enable-background:accumulate"
           d="m 400.75342,168.14618 6.87726,416.12598"
           id="path4720"
           inkscape:connector-curvature="0" />
        <path
           inkscape:original-d="m 500.02551,180.60054 c -1.07782,4.02247 0,405.07117 0,405.07117"
           style="color:#000000;fill:none;stroke:#c4b676;stroke-width:4.09151411;stroke-linecap:butt;stroke-linejoin:round;stroke-miterlimit:4;stroke-opacity:1;stroke-dasharray:none;stroke-dashoffset:0;marker:none;visibility:visible;display:inline;overflow:visible;enable-background:accumulate"
           d="m 509.84023,173.30622 c -0.62459,1.99998 -2.47143,103.24845 -4.18177,203.9965 -1.71034,100.74804 -3.30276,200.99539 -3.30276,200.99539"
           id="path4722"
           inkscape:connector-curvature="0" />
        <path
           inkscape:original-d="m 608.11183,482.63615 -430.32498,0"
           style="color:#000000;fill:none;stroke:#c4b676;stroke-width:4.09151411;stroke-linecap:butt;stroke-linejoin:round;stroke-miterlimit:4;stroke-opacity:1;stroke-dasharray:none;stroke-dashoffset:0;marker:none;visibility:visible;display:inline;overflow:visible;enable-background:accumulate"
           d="m 610.54653,479.27119 c -68.23074,-3.8655 -136.61751,-5.21511 -204.97729,-4.07629 -73.53045,1.20597 -148.24557,4.56078 -224.21609,7.2355"
           id="path4724"
           inkscape:connector-curvature="0" />
        <path
           inkscape:original-d="m 611.14229,385.6615 -435.37575,0"
           style="color:#000000;fill:none;stroke:#c4b676;stroke-width:4.09151411;stroke-linecap:butt;stroke-linejoin:round;stroke-miterlimit:4;stroke-opacity:1;stroke-dasharray:none;stroke-dashoffset:0;marker:none;visibility:visible;display:inline;overflow:visible;enable-background:accumulate"
           d="m 619.10719,382.62768 c -71.62972,-4.13119 -143.40987,-5.58631 -215.14932,-4.39405 -76.03227,1.26323 -152.03582,4.68371 -228.08333,7.35455"
           id="path4726"
           inkscape:connector-curvature="0"
           sodipodi:nodetypes="cc" />
        <path
           inkscape:original-d="m 611.14229,292.72747 -437.39605,0"
           style="color:#000000;fill:none;stroke:#c4b676;stroke-width:4.09151411;stroke-linecap:butt;stroke-linejoin:round;stroke-miterlimit:4;stroke-opacity:1;stroke-dasharray:none;stroke-dashoffset:0;marker:none;visibility:visible;display:inline;overflow:visible;enable-background:accumulate"
           d="m 624.4581,289.84783 c -73.94047,-4.26078 -148.019,-5.76302 -222.04445,-4.53539 -78.49012,1.31936 -155.74593,4.80494 -231.84212,7.47047"
           id="path4728"
           inkscape:connector-curvature="0" />
      </g>
      <path
         inkscape:connector-curvature="0"
         id="rect4748"
         d="m 552.49844,245.01739 c -9.20007,0 -16.66256,7.40722 -16.66256,16.53915 0,3.14174 0.90078,6.05238 2.43354,8.55375 L 275.24714,509.64386 c -2.44901,-1.77933 -5.46461,-2.84178 -8.7321,-2.84178 -8.17784,0 -14.80162,6.60314 -14.80162,14.72041 0,8.11728 6.62378,14.692 14.80162,14.692 8.17784,0 14.80162,-6.57472 14.80162,-14.692 0,-1.84971 -0.34505,-3.62687 -0.97341,-5.25728 l 263.88117,-240.3861 c 2.43617,1.38499 5.26536,2.18817 8.27402,2.18817 9.20007,0 16.63394,-7.37881 16.63394,-16.51074 0,-9.13193 -7.43387,-16.53915 -16.63394,-16.53915 z"
         style="color:#000000;fill:#c4b676;fill-opacity:1;stroke:none;stroke-width:3;marker:none;visibility:visible;display:inline;overflow:visible;enable-background:accumulate" />
    </g>
    <path
       style="color:#000000;fill:url(#radialGradient3825);fill-opacity:1;fill-rule:nonzero;stroke:none;stroke-width:3;marker:none;visibility:visible;display:inline;overflow:visible;enable-background:accumulate"
       d="m 559.54029,178.74798 c -11.62661,-10.75887 -29.1012,-12.35776 -42.60649,-2.85038 l -48.8063,34.34039 c -3.29563,-13.95445 -10.41131,-27.09501 -21.34506,-37.52606 -29.45953,-28.10506 -75.20062,-25.99729 -102.16557,4.70783 -26.96494,30.70513 -24.94267,78.3802 4.51687,106.48526 2.09307,1.99684 4.26774,3.84229 6.51264,5.53468 l -43.09857,30.32643 c -16.00629,11.26801 -20.18725,33.76155 -9.37634,50.4446 L 441.22466,583.2583 c 10.8109,16.68305 32.39197,21.04079 48.39825,9.77279 L 694.02797,449.14083 c 16.00629,-11.26799 20.16642,-33.78141 9.35551,-50.46446 l -21.22197,-32.73886 c -1.95593,3.00642 -4.12665,5.91998 -6.54951,8.67889 -26.96495,30.70513 -72.70603,32.8129 -102.16557,4.70785 -29.45953,-28.10506 -31.4818,-75.78014 -4.51686,-106.48526 10.54354,-12.00596 23.95038,-19.63939 38.13942,-22.80441 l -41.71787,-64.38592 c -1.6892,-2.60671 -3.65775,-4.9083 -5.81083,-6.90068 z"
       id="rect3785"
       inkscape:connector-curvature="0" />
    <path
       style="color:#000000;fill:#847c17;fill-opacity:1;fill-rule:nonzero;stroke:none;stroke-width:3;marker:none;visibility:visible;display:inline;overflow:visible;filter:url(#filter3798);enable-background:accumulate"
       d="m 392.50893,205.83482 c -17.94113,-0.063 -35.83828,7.16058 -48.90625,21.4375 -2.49578,2.72667 -4.70342,5.62594 -6.65625,8.625 24.89764,-23.58976 64.14967,-24.26834 89.84375,-0.75 9.97422,9.12963 16.46234,20.63032 19.46875,32.84375 l 44.53125,-30.0625 c 12.32009,-8.32119 28.26872,-6.91655 38.875,2.5 1.96413,1.7438 3.74029,3.78101 5.28125,6.0625 l 33.34375,49.375 c 4.72527,-2.2706 9.66257,-3.94916 14.71875,-5.03125 l -38.0625,-56.34375 c -1.54096,-2.28149 -3.31712,-4.3187 -5.28125,-6.0625 -10.60628,-9.41655 -26.55491,-10.82119 -38.875,-2.5 l -44.53125,30.0625 c -3.00641,-12.21343 -9.49453,-23.71412 -19.46875,-32.84375 -12.59729,-11.53057 -28.45085,-17.25691 -44.28125,-17.3125 z m 149.0625,113.5625 c -1.14435,1.08425 -2.2627,2.19394 -3.34375,3.375 -24.59854,26.87421 -22.74921,68.62021 4.125,93.21875 26.87421,24.59854 68.58895,22.74921 93.1875,-4.125 2.21023,-2.4147 4.18447,-4.96242 5.96875,-7.59375 l 19.375,28.65625 c 6.55684,9.70784 7.05401,21.67303 2.375,31.5 13.82539,-10.05896 17.27337,-29.21493 7.625,-43.5 l -19.375,-28.65625 c -1.78428,2.63133 -3.75852,5.17905 -5.96875,7.59375 -24.59855,26.87421 -66.31329,28.72354 -93.1875,4.125 -24.14754,-22.10276 -28.07561,-58.0339 -10.78125,-84.59375 z m -201.53125,15.09375 -25.6875,17.375 c -4.89485,3.30606 -8.57602,7.70368 -10.9375,12.65625 0.30839,-0.22446 0.6188,-0.441 0.9375,-0.65625 l 39.3125,-26.5625 c -1.23217,-0.89123 -2.44148,-1.8246 -3.625,-2.8125 z"
       id="path3793"
       inkscape:connector-curvature="0"
       transform="matrix(1.096201,0,0,1.1425497,-29.840544,-84.536424)" />
    <path
       style="color:#000000;fill:#eae283;fill-opacity:1;fill-rule:nonzero;stroke:none;stroke-width:3;marker:none;visibility:visible;display:inline;overflow:visible;filter:url(#filter3815);enable-background:accumulate"
       d="m 357.375,223.53125 c -1.49556,1.35996 -2.95205,2.79205 -4.34375,4.3125 -24.59854,26.87422 -22.74921,68.58896 4.125,93.1875 0.065,0.0595 0.12237,0.12835 0.1875,0.1875 l 19.75,-13.34375 c -2.04789,-1.48124 -4.02811,-3.09604 -5.9375,-4.84375 -22.63907,-20.72203 -27.51182,-53.58643 -13.78125,-79.5 z m 228.46875,58.125 c -5.12986,3.14814 -9.92016,7.02539 -14.1875,11.6875 -3.86002,4.21712 -7.0618,8.83124 -9.625,13.65625 8.8296,-8.01505 19.35462,-13.22856 30.40625,-15.59375 l -6.59375,-9.75 z m -260.75,69.875 -1.3125,0.90625 c -14.6016,9.86216 -18.42466,29.55465 -8.5625,44.15625 l 125.9375,186.46875 c 9.86215,14.60159 29.55466,18.3934 44.15625,8.53125 l 186.46875,-125.9375 c 6.30046,-4.25543 10.57758,-10.34273 12.625,-17.0625 l -185.09375,125 c -14.60159,9.86215 -34.2941,6.07034 -44.15625,-8.53125 L 329.21875,378.59375 c -5.59887,-8.28951 -6.8132,-18.22309 -4.125,-27.0625 z"
       id="path3802"
       inkscape:connector-curvature="0"
       transform="matrix(1.096201,0,0,1.1425497,-29.840544,-84.536424)" />
  </g>
</svg>
