<?xml version="1.0" encoding="UTF-8" standalone="no"?>
<!-- Created with Inkscape (http://www.inkscape.org/) -->
<svg xmlns:dc="http://purl.org/dc/elements/1.1/" xmlns:cc="http://creativecommons.org/ns#" xmlns:rdf="http://www.w3.org/1999/02/22-rdf-syntax-ns#" xmlns:svg="http://www.w3.org/2000/svg" xmlns="http://www.w3.org/2000/svg" xmlns:sodipodi="http://sodipodi.sourceforge.net/DTD/sodipodi-0.dtd" xmlns:inkscape="http://www.inkscape.org/namespaces/inkscape" width="406" height="187" id="svg3345" sodipodi:version="0.32" inkscape:version="0.46" version="1.0" sodipodi:docname="Université de Strasbourg.svg" inkscape:output_extension="org.inkscape.output.svg.inkscape">
  <defs id="defs3347">
    <inkscape:perspective sodipodi:type="inkscape:persp3d" inkscape:vp_x="0 : 526.18109 : 1" inkscape:vp_y="0 : 1000 : 0" inkscape:vp_z="744.09448 : 526.18109 : 1" inkscape:persp3d-origin="372.04724 : 350.78739 : 1" id="perspective3353"/>
  </defs>
  <sodipodi:namedview id="base" pagecolor="#ffffff" bordercolor="#666666" borderopacity="1.0" inkscape:pageopacity="0.0" inkscape:pageshadow="2" inkscape:zoom="2.2903916" inkscape:cx="202.80375" inkscape:cy="93.770005" inkscape:document-units="px" inkscape:current-layer="layer1" showgrid="false" inkscape:window-width="1017" inkscape:window-height="726" inkscape:window-x="0" inkscape:window-y="25"/>
  <metadata id="metadata3350">
    <rdf:RDF>
      <cc:Work rdf:about="">
        <dc:format>image/svg+xml</dc:format>
        <dc:type rdf:resource="http://purl.org/dc/dcmitype/StillImage"/>
      </cc:Work>
    </rdf:RDF>
  </metadata>
  <g inkscape:label="Calque 1" inkscape:groupmode="layer" id="layer1" transform="translate(391.37518,158.01067)">
    <g transform="matrix(1.25,0,0,-1.25,-198.05769,-96.15442)" id="g2536">
      <path id="path2538" style="fill:#1b62b7;fill-opacity:1;fill-rule:nonzero;stroke:none" d="M 0,0 L 25.803,0 C 25.803,0 37.116,20.602 85.661,26.656 C 84.77,39.539 83.945,49.485 83.945,49.485 C 83.945,49.485 16.478,44.867 0,0"/>
    </g>
    <g transform="matrix(1.25,0,0,-1.25,-206.59393,-46.83693)" id="g2540">
      <path id="path2542" style="fill:#1b62b7;fill-opacity:1;fill-rule:nonzero;stroke:none" d="M 0,0 L 23.433,0 C 23.433,0 20.428,-50.431 -63.45,-60.229 C -64.473,-47.214 -65.202,-37.426 -65.202,-37.426 C -65.202,-37.426 -9.026,-32.2 0,0"/>
    </g>
    <g transform="matrix(1.25,0,0,-1.25,-391.37518,-78.88191)" id="g2544">
      <path id="path2546" style="fill:#231f20;fill-opacity:1;fill-rule:nonzero;stroke:none" d="M 0,0 C 0.778,-0.077 0.892,-0.134 0.892,-0.969 L 0.892,-7.88 C 0.892,-10.824 2.601,-12.191 5.506,-12.191 C 8.43,-12.191 10.139,-10.824 10.139,-7.88 L 10.139,-0.969 C 10.139,-0.134 10.253,-0.077 11.032,0 L 11.032,0.265 C 10.443,0.265 9.854,0.152 9.342,0.152 C 8.373,0.152 7.766,0.265 7.177,0.265 L 7.177,0 C 7.595,-0.02 8.279,-0.134 8.279,-0.817 L 8.279,-8.241 C 8.279,-10.254 7.064,-11.241 5.506,-11.241 C 3.969,-11.241 2.753,-10.254 2.753,-8.241 L 2.753,-0.817 C 2.753,-0.134 3.437,-0.02 3.855,0 L 3.855,0.265 C 3.266,0.265 2.658,0.152 1.69,0.152 C 1.177,0.152 0.589,0.265 0,0.265 L 0,0 z M 16.5,-10.937 C 16.5,-11.469 16.272,-11.621 15.532,-11.735 L 15.532,-12.001 C 16.158,-12.001 16.785,-11.887 17.412,-11.887 C 17.943,-11.887 18.475,-12.001 19.006,-12.001 L 19.006,-11.735 C 17.981,-11.564 17.677,-11.279 17.677,-10.007 L 17.677,-1.823 L 17.715,-1.823 L 25.102,-12.001 L 26.222,-12.001 L 26.222,-0.798 C 26.222,-0.266 26.449,-0.115 27.19,0 L 27.19,0.265 C 26.563,0.265 25.937,0.152 25.31,0.152 C 24.778,0.152 24.247,0.265 23.715,0.265 L 23.715,0 C 24.741,-0.172 25.044,-0.456 25.044,-1.728 L 25.044,-8.602 L 25.007,-8.602 L 18.55,0.265 C 18.076,0.265 17.658,0.152 17.146,0.152 C 16.614,0.152 16.063,0.265 15.532,0.265 L 15.532,0 C 16.272,-0.115 16.5,-0.266 16.5,-0.798 L 16.5,-10.937 z M 31.614,-12.001 C 32.013,-12.001 32.791,-11.887 33.512,-11.887 C 34.234,-11.887 35.012,-12.001 35.411,-12.001 L 35.411,-11.735 C 34.671,-11.621 34.443,-11.469 34.443,-10.937 L 34.443,-0.798 C 34.443,-0.266 34.671,-0.115 35.411,0 L 35.411,0.265 C 35.012,0.265 34.234,0.152 33.512,0.152 C 32.791,0.152 32.013,0.265 31.614,0.265 L 31.614,0 C 32.354,-0.115 32.582,-0.266 32.582,-0.798 L 32.582,-10.937 C 32.582,-11.469 32.354,-11.621 31.614,-11.735 L 31.614,-12.001 z M 38.867,0 C 39.722,-0.077 39.873,-0.437 40.044,-0.855 L 44.221,-12.001 L 45.493,-12.001 L 49.215,-1.026 C 49.405,-0.456 49.747,-0.077 50.354,0 L 50.354,0.265 C 49.879,0.265 49.405,0.152 48.93,0.152 C 48.36,0.152 47.772,0.265 47.203,0.265 L 47.203,0 C 47.582,-0.077 48.095,-0.19 48.095,-0.57 C 48.095,-0.798 48,-1.159 47.848,-1.633 L 45.133,-9.798 L 45.095,-9.798 L 42.057,-1.368 C 41.981,-1.159 41.848,-0.76 41.848,-0.551 C 41.848,-0.19 42.095,-0.02 42.816,0 L 42.816,0.265 C 42.247,0.265 41.715,0.152 41.164,0.152 C 40.405,0.152 39.626,0.265 38.867,0.265 L 38.867,0 z M 55.063,-10.824 C 55.063,-11.355 54.835,-11.507 54.095,-11.621 L 54.095,-11.887 L 63.74,-11.887 C 63.76,-10.842 63.835,-9.817 63.93,-8.773 L 63.569,-8.773 C 63.227,-10.5 62.544,-10.824 60.949,-10.824 L 56.924,-10.824 L 56.924,-6.039 L 59.62,-6.039 C 60.304,-6.039 60.683,-6.096 60.816,-7.14 L 61.196,-7.14 C 61.139,-6.589 61.082,-6.077 61.082,-5.488 C 61.082,-4.937 61.139,-4.425 61.196,-3.874 L 60.816,-3.874 C 60.683,-4.919 60.304,-4.975 59.62,-4.975 L 56.924,-4.975 L 56.924,-0.912 L 61.272,-0.912 C 62.107,-0.912 62.753,-1.14 62.981,-2.659 L 63.361,-2.659 C 63.284,-1.728 63.247,-0.779 63.247,0.152 L 54.095,0.152 L 54.095,-0.115 C 54.835,-0.229 55.063,-0.381 55.063,-0.912 L 55.063,-10.824 z M 69.323,-10.937 C 69.323,-11.469 69.095,-11.621 68.354,-11.735 L 68.354,-12.001 C 68.753,-12.001 69.531,-11.887 70.253,-11.887 C 70.974,-11.887 71.753,-12.001 72.152,-12.001 L 72.152,-11.735 C 71.411,-11.621 71.183,-11.469 71.183,-10.937 L 71.183,-0.912 L 72.209,-0.912 C 73.804,-0.912 75.418,-1.178 75.418,-2.982 C 75.418,-4.653 74.031,-5.469 72.057,-5.469 C 71.905,-5.469 71.696,-5.545 71.696,-5.659 C 71.696,-5.735 71.848,-5.906 72.076,-6.209 L 74.525,-9.494 C 76.063,-11.64 76.253,-11.944 76.462,-12.001 C 76.936,-12.001 77.43,-11.887 77.924,-11.887 C 78.246,-11.887 78.569,-12.001 78.911,-12.001 L 78.911,-11.735 C 78.36,-11.678 77.886,-11.203 77.316,-10.482 L 73.822,-5.962 C 75.645,-5.81 77.278,-4.672 77.278,-2.735 C 77.278,-1.159 76.386,0.152 73.86,0.152 L 68.354,0.152 L 68.354,-0.115 C 69.095,-0.229 69.323,-0.381 69.323,-0.912 L 69.323,-10.937 z M 82.614,-8.355 C 82.689,-9.343 82.727,-10.311 82.727,-11.298 C 83.81,-11.963 85.006,-12.191 86.183,-12.191 C 89.715,-12.191 91.31,-10.406 91.31,-8.298 C 91.31,-5.773 89.506,-5.298 87.133,-4.823 C 84.797,-4.349 84.056,-4.14 84.056,-2.773 C 84.056,-1.576 85.101,-0.608 87.152,-0.608 C 88.481,-0.608 90.038,-1.159 90.304,-2.811 L 90.683,-2.811 C 90.626,-1.937 90.588,-1.045 90.608,-0.172 C 89.923,0.246 88.253,0.455 87.455,0.455 C 84.398,0.455 82.424,-1.178 82.424,-3.057 C 82.424,-5.374 84.19,-5.962 87.455,-6.608 C 88.766,-6.874 89.677,-7.178 89.677,-8.697 C 89.677,-10.387 88.101,-11.127 86.715,-11.127 C 84.854,-11.127 83.449,-10.178 82.993,-8.355 L 82.614,-8.355 z M 95.544,-12.001 C 95.943,-12.001 96.721,-11.887 97.443,-11.887 C 98.164,-11.887 98.942,-12.001 99.341,-12.001 L 99.341,-11.735 C 98.601,-11.621 98.373,-11.469 98.373,-10.937 L 98.373,-0.798 C 98.373,-0.266 98.601,-0.115 99.341,0 L 99.341,0.265 C 98.942,0.265 98.164,0.152 97.443,0.152 C 96.721,0.152 95.943,0.265 95.544,0.265 L 95.544,0 C 96.284,-0.115 96.513,-0.266 96.513,-0.798 L 96.513,-10.937 C 96.513,-11.469 96.284,-11.621 95.544,-11.735 L 95.544,-12.001 z M 107.088,-10.634 C 107.088,-11.279 106.861,-11.621 105.892,-11.735 L 105.892,-12.001 C 106.632,-12.001 107.449,-11.887 108.019,-11.887 C 108.589,-11.887 109.405,-12.001 110.145,-12.001 L 110.145,-11.735 C 109.177,-11.621 108.949,-11.279 108.949,-10.634 L 108.949,-0.912 L 110.696,-0.912 C 111.759,-0.912 112.291,-1.254 112.633,-2.963 L 113.012,-2.963 C 112.88,-1.918 112.766,-0.893 112.709,0.152 L 103.329,0.152 C 103.272,-0.893 103.158,-1.918 103.025,-2.963 L 103.405,-2.963 C 103.747,-1.254 104.278,-0.912 105.342,-0.912 L 107.088,-0.912 L 107.088,-10.634 z M 120.304,1.461 L 121.177,1.461 L 123.873,3.151 C 124.253,3.379 124.652,3.721 124.652,4.063 C 124.652,4.329 124.367,4.803 123.873,4.803 C 123.645,4.803 123.418,4.69 122.753,4.006 L 120.304,1.461 z M 117.949,-10.824 C 117.949,-11.355 117.721,-11.507 116.981,-11.621 L 116.981,-11.887 L 126.627,-11.887 C 126.645,-10.842 126.721,-9.817 126.816,-8.773 L 126.455,-8.773 C 126.114,-10.5 125.43,-10.824 123.835,-10.824 L 119.81,-10.824 L 119.81,-6.039 L 122.506,-6.039 C 123.19,-6.039 123.57,-6.096 123.702,-7.14 L 124.082,-7.14 C 124.025,-6.589 123.968,-6.077 123.968,-5.488 C 123.968,-4.937 124.025,-4.425 124.082,-3.874 L 123.702,-3.874 C 123.57,-4.919 123.19,-4.975 122.506,-4.975 L 119.81,-4.975 L 119.81,-0.912 L 124.158,-0.912 C 124.994,-0.912 125.639,-1.14 125.867,-2.659 L 126.247,-2.659 C 126.171,-1.728 126.133,-0.779 126.133,0.152 L 116.981,0.152 L 116.981,-0.115 C 117.721,-0.229 117.949,-0.381 117.949,-0.912 L 117.949,-10.824 z M 138.408,0.152 L 138.408,-0.115 C 139.149,-0.229 139.376,-0.381 139.376,-0.912 L 139.376,-10.824 C 139.376,-11.355 139.149,-11.507 138.408,-11.621 L 138.408,-11.887 L 143.439,-11.887 C 147.199,-11.887 150.294,-9.418 150.294,-5.792 C 150.294,-2.203 147.731,0.152 142.908,0.152 L 138.408,0.152 z M 141.237,-0.912 L 142.187,-0.912 C 147.389,-0.912 148.433,-3.988 148.433,-6.153 C 148.433,-9.076 145.832,-10.824 143.895,-10.824 L 141.237,-10.824 L 141.237,-0.912 z M 155.743,-10.824 C 155.743,-11.355 155.515,-11.507 154.775,-11.621 L 154.775,-11.887 L 164.42,-11.887 C 164.439,-10.842 164.515,-9.817 164.611,-8.773 L 164.25,-8.773 C 163.908,-10.5 163.224,-10.824 161.629,-10.824 L 157.604,-10.824 L 157.604,-6.039 L 160.3,-6.039 C 160.984,-6.039 161.363,-6.096 161.497,-7.14 L 161.876,-7.14 C 161.819,-6.589 161.762,-6.077 161.762,-5.488 C 161.762,-4.937 161.819,-4.425 161.876,-3.874 L 161.497,-3.874 C 161.363,-4.919 160.984,-4.975 160.3,-4.975 L 157.604,-4.975 L 157.604,-0.912 L 161.952,-0.912 C 162.787,-0.912 163.433,-1.14 163.661,-2.659 L 164.041,-2.659 C 163.965,-1.728 163.926,-0.779 163.926,0.152 L 154.775,0.152 L 154.775,-0.115 C 155.515,-0.229 155.743,-0.381 155.743,-0.912"/>
    </g>
    <g transform="matrix(1.25,0,0,-1.25,-170.51393,-69.24566)" id="g2548">
      <path id="path2550" style="fill:#1b62b7;fill-opacity:1;fill-rule:nonzero;stroke:none" d="M 0,0 C 0.095,-1.101 0.152,-2.411 0.152,-3.911 C 1.424,-4.366 2.886,-4.595 4.272,-4.595 C 7.367,-4.595 9.893,-3.266 9.893,-0.759 C 9.893,1.709 8.108,2.412 6.19,2.963 L 4.196,3.532 C 3.418,3.76 2.507,4.064 2.507,5.108 C 2.507,6.418 4.101,6.722 5.051,6.722 C 6.759,6.722 8.298,5.905 8.696,4.159 L 9.057,4.159 C 8.981,5.146 8.905,6.304 8.905,7.671 C 7.804,8.07 6.57,8.279 5.373,8.279 C 2.545,8.279 -0.303,7.386 -0.303,4.444 C -0.303,2.203 1.633,1.387 3.57,0.817 L 4.918,0.418 C 5.791,0.152 6.968,-0.151 6.968,-1.291 C 6.968,-2.715 5.355,-3.037 4.235,-3.037 C 2.203,-3.037 0.74,-2.069 0.361,0 L 0,0 z M 20.468,6.19 L 22.368,6.19 C 23.354,6.19 23.772,5.507 23.962,4.14 L 24.323,4.14 C 24.285,4.937 24.209,5.735 24.209,6.532 L 24.209,7.862 L 13.918,7.862 L 13.918,6.532 C 13.918,5.735 13.842,4.937 13.804,4.14 L 14.165,4.14 C 14.354,5.507 14.772,6.19 15.759,6.19 L 17.658,6.19 L 17.658,-2.772 C 17.658,-3.683 16.993,-3.93 16.405,-3.93 L 16.405,-4.291 C 17.317,-4.234 18.228,-4.177 19.063,-4.177 C 19.899,-4.177 20.81,-4.234 21.722,-4.291 L 21.722,-3.93 C 21.133,-3.93 20.468,-3.683 20.468,-2.772 L 20.468,6.19 z M 32.089,6.19 L 33.342,6.19 C 35.051,6.19 36.19,5.583 36.19,4.064 C 36.19,2.355 35.108,1.975 32.335,1.614 L 32.335,1.576 C 33.589,-0.151 35.051,-2.202 36.171,-4.291 C 36.836,-4.234 37.481,-4.177 38.127,-4.177 C 38.773,-4.177 39.437,-4.234 40.082,-4.291 L 40.082,-3.873 C 39.589,-3.911 39.247,-3.664 38.867,-3.132 L 35.773,1.14 C 38.374,1.823 39,3.152 39,4.633 C 39,6.836 37.329,7.862 35.146,7.862 L 28.405,7.862 L 28.405,7.501 C 29.051,7.481 29.278,7.235 29.278,6.703 L 29.278,-2.582 C 29.278,-3.474 29.146,-3.797 28.405,-3.93 L 28.405,-4.291 C 29.241,-4.234 29.981,-4.177 30.684,-4.177 C 31.387,-4.177 32.127,-4.234 33.323,-4.291 L 33.323,-3.93 C 32.222,-3.721 32.089,-3.474 32.089,-2.79 L 32.089,6.19 z M 42.437,-4.291 C 43.102,-4.234 43.747,-4.177 44.411,-4.177 C 45.057,-4.177 45.721,-4.234 46.367,-4.291 L 46.367,-3.93 C 45.741,-3.892 45.475,-3.664 45.475,-3.323 C 45.475,-3.132 45.532,-2.924 45.626,-2.658 L 46.462,-0.417 L 50.164,-0.417 L 50.772,-2.259 C 50.867,-2.506 50.962,-2.942 50.962,-3.208 C 50.962,-3.645 50.715,-3.797 50.013,-3.93 L 50.013,-4.291 C 50.829,-4.234 51.646,-4.177 52.462,-4.177 C 53.259,-4.177 54.076,-4.234 54.874,-4.291 L 54.874,-3.93 C 54.304,-3.778 54.019,-3.531 53.734,-2.696 L 50.241,7.975 C 49.652,7.918 49.044,7.862 48.456,7.862 C 47.867,7.862 47.279,7.918 46.671,7.975 L 46.671,7.615 C 47.184,7.615 47.393,7.311 47.393,7.121 C 47.393,6.931 47.259,6.665 47.146,6.38 L 43.424,-3.057 C 43.234,-3.55 42.987,-3.854 42.437,-3.93 L 42.437,-4.291 z M 47.032,1.026 C 47.525,2.374 48.133,3.874 48.57,5.393 L 48.608,5.393 C 48.987,3.475 49.31,2.26 49.709,1.026 L 47.032,1.026 z M 58.12,0 C 58.215,-1.101 58.272,-2.411 58.272,-3.911 C 59.544,-4.366 61.006,-4.595 62.392,-4.595 C 65.487,-4.595 68.013,-3.266 68.013,-0.759 C 68.013,1.709 66.228,2.412 64.31,2.963 L 62.317,3.532 C 61.538,3.76 60.627,4.064 60.627,5.108 C 60.627,6.418 62.221,6.722 63.171,6.722 C 64.88,6.722 66.418,5.905 66.816,4.159 L 67.177,4.159 C 67.101,5.146 67.025,6.304 67.025,7.671 C 65.924,8.07 64.69,8.279 63.494,8.279 C 60.665,8.279 57.817,7.386 57.817,4.444 C 57.817,2.203 59.753,1.387 61.69,0.817 L 63.038,0.418 C 63.911,0.152 65.088,-0.151 65.088,-1.291 C 65.088,-2.715 63.475,-3.037 62.355,-3.037 C 60.323,-3.037 58.861,-2.069 58.481,0 L 58.12,0 z M 75.93,1.235 L 77.715,1.235 C 79.88,1.235 80.563,0.267 80.563,-0.626 C 80.563,-1.595 80.089,-2.62 77.582,-2.62 L 75.93,-2.62 L 75.93,1.235 z M 75.93,6.304 L 77.488,6.304 C 79.006,6.304 79.804,5.716 79.804,4.728 C 79.804,3.836 79.272,2.791 77.259,2.791 L 75.93,2.791 L 75.93,6.304 z M 73.12,-3.019 C 73.12,-3.55 72.892,-3.797 72.247,-3.816 L 72.247,-4.177 L 79.12,-4.177 C 80.298,-4.177 83.373,-3.493 83.373,-0.702 C 83.373,1.254 81.722,2.089 79.955,2.146 L 79.955,2.184 C 81.342,2.526 82.5,3.494 82.5,4.956 C 82.5,7.216 80.336,7.862 79.12,7.862 L 72.247,7.862 L 72.247,7.501 C 72.892,7.481 73.12,7.235 73.12,6.703 L 73.12,-3.019 z M 96.93,1.026 C 96.93,-1.044 95.81,-2.772 93.873,-2.772 C 91.158,-2.772 90.171,0.475 90.171,2.696 C 90.171,4.216 90.873,6.456 93.228,6.456 C 96.076,6.456 96.93,3.229 96.93,1.026 M 99.741,1.823 C 99.741,5.203 97.405,8.279 93.532,8.279 C 90.038,8.279 87.361,5.659 87.361,2.051 C 87.361,-1.424 89.658,-4.595 93.437,-4.595 C 96.835,-4.595 99.741,-2.183 99.741,1.823 M 104.677,-0.227 C 104.677,-3.474 106.5,-4.595 109.917,-4.595 C 113.335,-4.595 115.158,-3.474 115.158,0.038 L 115.158,6.817 C 115.158,7.349 115.386,7.595 116.031,7.615 L 116.031,7.975 C 115.424,7.918 114.645,7.862 113.848,7.862 C 112.86,7.862 112.082,7.918 111.322,7.975 L 111.322,7.615 C 112.139,7.576 112.348,7.424 112.348,6.684 L 112.348,-0.36 C 112.348,-2.468 111.456,-2.924 109.917,-2.924 C 108.379,-2.924 107.487,-2.506 107.487,-0.36 L 107.487,6.684 C 107.487,7.424 107.696,7.576 108.512,7.615 L 108.512,7.975 C 107.753,7.918 106.975,7.862 105.987,7.862 C 105.19,7.862 104.411,7.918 103.804,7.975 L 103.804,7.615 C 104.449,7.595 104.677,7.349 104.677,6.817 L 104.677,-0.227 z M 123.987,6.19 L 125.24,6.19 C 126.949,6.19 128.088,5.583 128.088,4.064 C 128.088,2.355 127.006,1.975 124.234,1.614 L 124.234,1.576 C 125.487,-0.151 126.949,-2.202 128.069,-4.291 C 128.734,-4.234 129.379,-4.177 130.025,-4.177 C 130.67,-4.177 131.335,-4.234 131.981,-4.291 L 131.981,-3.873 C 131.487,-3.911 131.145,-3.664 130.766,-3.132 L 127.67,1.14 C 130.272,1.823 130.898,3.152 130.898,4.633 C 130.898,6.836 129.228,7.862 127.044,7.862 L 120.303,7.862 L 120.303,7.501 C 120.949,7.481 121.177,7.235 121.177,6.703 L 121.177,-2.582 C 121.177,-3.474 121.044,-3.797 120.303,-3.93 L 120.303,-4.291 C 121.139,-4.234 121.879,-4.177 122.582,-4.177 C 123.284,-4.177 124.025,-4.234 125.221,-4.291 L 125.221,-3.93 C 124.12,-3.721 123.987,-3.474 123.987,-2.79 L 123.987,6.19 z M 144.094,-1.272 C 144.094,-2.145 143.354,-2.772 142.006,-2.772 C 139.803,-2.772 138.474,-0.266 138.474,2.089 C 138.474,4.538 139.765,6.608 142.404,6.608 C 143.98,6.608 145.575,5.773 145.822,4.083 L 146.297,4.083 C 146.221,5.393 146.183,6.532 146.183,7.463 C 145.139,8.051 143.828,8.279 142.519,8.279 C 138.417,8.279 135.664,5.735 135.664,1.614 C 135.664,-1.803 137.943,-4.595 141.512,-4.595 C 142.803,-4.595 144.057,-4.196 145.252,-3.076 L 145.69,-4.291 L 146.79,-4.291 L 146.79,-0.019 C 146.79,0.836 147.132,1.007 147.797,1.026 L 147.797,1.462 C 146.942,1.406 146.107,1.349 145.252,1.349 C 144.455,1.349 143.676,1.406 142.898,1.462 L 142.898,0.988 C 143.753,0.969 144.094,0.931 144.094,0.172"/>
    </g>
  </g>
</svg>